<svg width="39" height="38" viewBox="0 0 39 38" fill="none" xmlns="http://www.w3.org/2000/svg">
<path d="M5.72988 0.210022C7.46988 0.230022 8.74996 0.779976 9.80996 1.84998C12.86 4.91998 15.9399 7.95998 18.9799 11.04C19.3999 11.46 19.6099 11.45 20.0199 11.04C23.0799 7.94998 26.1499 4.87 29.2399 1.81C31.7899 -0.710002 35.8798 -0.160027 37.5698 2.90997C38.7098 4.97997 38.3499 7.45997 36.5899 9.21997C33.5699 12.26 30.5299 15.28 27.4999 18.31C26.8899 18.92 26.8899 18.92 27.5099 19.55C30.5499 22.6 33.6099 25.63 36.6399 28.69C38.9299 31 38.6699 34.67 36.1299 36.6C34.0499 38.17 31.1599 37.95 29.2199 36.04C27.1199 33.96 25.0398 31.86 22.9499 29.77C21.9399 28.76 20.8999 27.76 19.9199 26.72C19.5799 26.36 19.3998 26.4 19.0698 26.73C15.9898 29.83 12.8999 32.92 9.79995 36C7.89995 37.88 5.14995 38.17 3.04995 36.73C0.349948 34.88 -0.010154 31.1 2.31985 28.72C4.24985 26.74 6.21995 24.81 8.17995 22.85C9.34995 21.68 10.4998 20.5 11.6898 19.36C12.0698 18.99 12.0099 18.8 11.6699 18.46C8.54994 15.37 5.43988 12.27 2.34988 9.15002C-0.0101247 6.77002 0.349958 2.96003 3.05996 1.09003C3.88996 0.530027 4.93988 0.210022 5.72988 0.210022Z" fill="#DB2662"/>
</svg>
