<svg width="35" height="35" viewBox="0 0 35 35" fill="none" xmlns="http://www.w3.org/2000/svg">
<path d="M4.78018 0.51001C6.38018 0.53001 7.55018 1.03999 8.53018 2.01999C11.3302 4.82999 14.1502 7.62999 16.9502 10.46C17.3302 10.85 17.5302 10.84 17.9002 10.46C20.7102 7.61999 23.5201 4.78999 26.3601 1.98999C28.7001 -0.33001 32.4501 0.18 34.0001 3C35.0501 4.9 34.7101 7.16999 33.1001 8.79999C30.3301 11.59 27.5402 14.36 24.7602 17.15C24.2002 17.71 24.2002 17.71 24.7702 18.29C27.5602 21.08 30.3702 23.87 33.1502 26.68C35.2502 28.8 35.0201 32.17 32.6801 33.94C30.7701 35.38 28.1102 35.18 26.3402 33.42C24.4102 31.51 22.5002 29.59 20.5802 27.67C19.6502 26.74 18.7001 25.82 17.7901 24.87C17.4701 24.54 17.3102 24.58 17.0102 24.88C14.1802 27.73 11.3501 30.57 8.50015 33.39C6.76015 35.12 4.23013 35.38 2.30013 34.06C-0.179866 32.36 -0.509849 28.9 1.63015 26.71C3.40015 24.9 5.21016 23.12 7.01016 21.32C8.08016 20.25 9.14013 19.16 10.2301 18.12C10.5801 17.78 10.5202 17.61 10.2102 17.3C7.35017 14.46 4.49012 11.62 1.66012 8.75C-0.49988 6.56 -0.179856 3.06001 2.31014 1.35001C3.09014 0.810006 4.05018 0.51001 4.78018 0.51001Z" fill="white"/>
</svg>
