<svg width="802" height="462" viewBox="0 0 802 462" fill="none" xmlns="http://www.w3.org/2000/svg">
<path d="M231.29 137.84V461.06C230.7 461.06 230.11 461.07 229.52 461.07C177.83 461.07 126.15 461.08 74.46 461.05C71.79 461.05 69.11 460.85 66.44 460.63C60.94 460.17 55.51 459.03 50.31 457.16C31.45 450.38 17.42 438.12 8.44003 420.16C4.10003 411.49 1.56002 402.33 0.920021 392.65C0.910021 392.53 0.900022 392.4 0.890022 392.28C0.640022 389.68 0.52002 387.08 0.52002 384.47C0.52002 301.88 0.52002 219.29 0.52002 136.7C0.67002 136.26 0.830024 135.82 0.970024 135.37C1.18002 134.7 1.32002 134 1.59002 133.35C4.28002 126.86 12.68 124.27 18.63 128.87C24.85 133.67 31.08 138.44 37.31 143.22C63.24 163.15 89.16 183.09 115.09 203.02C115.39 203.25 115.72 203.46 116.05 203.7C116.38 203.46 116.67 203.27 116.95 203.05C141.82 183.93 166.68 164.81 191.55 145.69C198.79 140.12 206.05 134.58 213.27 128.99C215.92 126.94 219.35 126.04 222.61 126.81C226.74 127.79 229.56 130.32 230.85 134.41C230.9 134.58 230.95 134.74 230.99 134.91C231.21 135.88 231.29 136.86 231.29 137.84ZM41.98 198.98C41.98 199.66 41.98 200.07 41.98 200.49C41.93 249.39 41.88 298.29 41.83 347.19C41.82 361.57 41.82 375.94 41.84 390.32C41.84 391.1 41.95 392.37 42.12 393.13C44.63 404.8 51.39 412.97 62.45 417.56C64.95 418.6 67.57 419.33 70.31 419.44C72.23 419.52 74.16 419.5 76.08 419.5C86.21 419.52 96.35 419.54 106.48 419.57C125.1 419.62 143.72 419.69 162.33 419.74C171.13 419.77 179.93 419.78 188.73 419.8C189.15 419.8 189.57 419.8 190.02 419.8V199.04C165.18 217.94 140.55 236.81 116.04 255.92C91.47 236.77 66.86 217.92 41.98 198.98Z" fill="#DB2662"/>
<path d="M151.53 100.36C142.11 106.93 132.11 106.67 120.47 106.89C114.28 107.01 109.17 109.2 104.03 112.49C95.85 117.72 86.56 126.46 76.33 120.92C62.72 113.54 69.63 92.57 65.37 79.15C61.11 65.73 45.69 59.85 52.8 46.74C59.91 33.63 80.59 35.69 94.17 31.93C118 26.04 120.1 -13.99 146.36 6.93004C154.81 13.66 155.26 27.46 155.33 38.21C155.41 50.53 164.87 56.95 166.55 69.08C168.08 80.11 162.7 90.9501 154.47 98.0701C153.49 98.9101 152.51 99.67 151.53 100.36Z" fill="#FDF04C"/>
<path d="M134.17 33.54C122.37 28.45 109.35 27.55 99.15 31.84C87.61 36.69 80.36 47.95 79.2 60.81C78.04 73.67 82.6801 87.86 90.9401 100C100.59 114.18 115.88 126 131.93 128.9C149.46 132.07 165.88 123.75 172.54 109.57C177.11 99.84 177.2 87.75 173.65 76.13C170.26 65.01 164.4 57.25 155.85 48.62C149.59 42.29 142.18 36.99 134.17 33.54Z" fill="#FDF04C"/>
<path d="M114.04 123.03C100.2 124.98 85.86 118.75 76.35 107.99C66.83 97.23 61.99 82.38 61.84 67.68C61.67 50.7 67.95 33.28 80.33 22.4C93.56 10.78 114.53 7.85001 129.83 16.54C137.12 20.68 143.04 27.07 150.11 31.61C157.93 36.63 167.47 39.71 172.57 47.72C176 53.1 176.8 60.02 175.69 66.4C174.59 72.78 171.73 78.68 168.36 84.1C156.67 102.86 135.66 119.98 114.04 123.03Z" fill="#DB2662"/>
<path d="M116.91 107.79C139.294 107.79 157.44 89.6441 157.44 67.26C157.44 44.8759 139.294 26.73 116.91 26.73C94.5259 26.73 76.38 44.8759 76.38 67.26C76.38 89.6441 94.5259 107.79 116.91 107.79Z" fill="white"/>
<path d="M116.91 103.15C136.279 103.15 151.98 87.4486 151.98 68.08C151.98 48.7114 136.279 33.01 116.91 33.01C97.5414 33.01 81.84 48.7114 81.84 68.08C81.84 87.4486 97.5414 103.15 116.91 103.15Z" fill="#FFFBC7"/>
<path d="M116.9 91.37C129.934 91.37 140.5 80.8039 140.5 67.77C140.5 54.7361 129.934 44.17 116.9 44.17C103.866 44.17 93.3 54.7361 93.3 67.77C93.3 80.8039 103.866 91.37 116.9 91.37Z" fill="white"/>
<path d="M118.72 25.78C119.03 25.83 119.34 25.91 119.65 25.92C125.07 26.21 130.24 27.55 135.07 29.99C146.98 36 154.73 45.48 157.52 58.53C160.62 73.09 156.83 85.95 146.48 96.72C140.65 102.79 133.47 106.55 125.24 108.27C121.84 108.98 118.4 109.22 114.93 109.05C106.21 108.63 98.35 105.79 91.47 100.44C83.15 93.97 77.82 85.55 75.99 75.15C73.5 60.98 77.3 48.58 87.27 38.21C93.12 32.13 100.31 28.34 108.59 26.65C110.46 26.27 112.33 25.99 114.24 25.92C114.52 25.91 114.8 25.83 115.08 25.78C116.3 25.78 117.51 25.78 118.72 25.78ZM154.33 67.54C154.28 46.49 137.29 30.06 116.93 30.03C96.35 29.99 79.47 46.74 79.46 67.38C79.45 88.36 96.4 104.78 116.68 104.89C137.04 105 154.19 88.65 154.33 67.54Z" fill="#333333"/>
<path d="M80.54 67.48C80.63 47.21 97.03 31.67 116.34 31.66C135.51 31.65 152.14 47.01 152.16 67.44C152.18 87.68 135.78 103.3 116.3 103.26C96.79 103.22 80.65 87.53 80.54 67.48ZM149.31 67.5C149.22 48.9 134.22 34.54 116.4 34.52C98.28 34.5 83.48 49.2 83.41 67.33C83.35 85.54 98.09 100.34 116.31 100.39C134.1 100.43 149.17 86.15 149.31 67.5Z" fill="url(#paint0_linear_7_268)"/>
<path d="M146.21 67.5001C146.06 84.3501 132.34 96.9 116.63 96.74C100.47 96.58 87.45 83.4001 87.61 67.1401C87.77 51.0001 100.89 38.1101 116.99 38.1601C132.97 38.2101 146.14 51.0601 146.21 67.5001ZM116.92 46.99C105.86 46.92 96.48 55.89 96.43 67.33C96.37 78.71 105.52 87.8801 116.84 87.9401C127.76 87.9901 137.37 79.23 137.38 67.46C137.38 55.75 127.82 46.93 116.92 46.99Z" fill="#333333"/>
<path d="M116.88 84.84C107.21 84.88 99.42 76.8501 99.51 67.2901C99.6 57.7601 107.39 49.98 117.03 50.05C126.88 50.12 134.36 58.17 134.32 67.53C134.27 77.15 126.4 84.92 116.88 84.84ZM120.84 53.44C119.86 53.42 119.4 53.9701 119.61 54.7901C119.75 55.3401 120.1 55.77 120.57 56.07C120.79 56.21 121.03 56.31 121.26 56.43C121.87 56.75 122.5 57.03 123.1 57.38C125.06 58.54 126.6 60.09 127.58 62.16C127.92 62.88 128.39 63.5 129.21 63.72C129.97 63.93 130.42 63.53 130.26 62.77C130.17 62.32 130.02 61.87 129.82 61.47C127.99 57.82 125.23 55.17 121.43 53.63C121.2 53.53 120.95 53.48 120.84 53.44ZM131.73 68.22C131.64 67.66 131.55 66.94 131.4 66.24C131.24 65.48 130.67 65.1 129.95 65.22C129.32 65.33 128.89 65.9 128.96 66.62C129.03 67.31 129.14 67.9901 129.28 68.6701C129.43 69.3701 130.03 69.81 130.65 69.72C131.29 69.63 131.74 69.07 131.73 68.22Z" fill="#DB2662"/>
<path d="M149.52 128.25C144.04 129.7 138.06 130 131.94 128.89C126.31 127.87 120.79 125.74 115.56 122.82C113.65 122.36 111.71 121.79 110.58 120.27C110.38 120 110.2 119.7 110.03 119.36C108.83 117 107.98 113.23 103.36 112.54C102.75 112.45 102.15 112.43 101.57 112.46C91.85 113 86.39 129.91 99.21 138.2C100.39 138.96 101.69 139.51 103.05 139.87C103.04 139.88 121.78 146.52 149.52 128.25Z" fill="#00BFB2"/>
<path d="M799.91 342.61H277.32C276.45 342.61 275.75 341.91 275.75 341.04C275.75 340.17 276.45 339.47 277.32 339.47H799.91C800.78 339.47 801.48 340.17 801.48 341.04C801.48 341.91 800.78 342.61 799.91 342.61Z" fill="#BEB439"/>
<path d="M381.3 314.39C374.35 314.39 368.21 311.23 363.56 305.25C360.17 300.9 358.1 295.76 357.37 289.91C356.68 290.69 355.97 291.35 355.26 291.91C352.36 294.21 348.77 295.43 344.87 295.43C341.71 295.43 338.56 294.43 335.52 292.46C335.07 292.17 334.65 291.82 334.27 291.43C333.86 291 333.45 290.56 333.05 290.09C333 290.42 332.95 290.74 332.89 291.06C331.73 297.44 328.64 303.09 323.69 307.89C323.26 308.31 322.78 308.67 322.27 308.96C317.32 311.79 312.39 313.22 307.6 313.22C300.72 313.22 294.45 310.29 288.97 304.52C288.6 304.13 288.27 303.69 288 303.22C281.67 292.42 280.05 288.49 279.38 286.32C277.48 280.55 276.55 272.5 276.55 261.7C276.55 252.35 277.34 235.74 278.89 212.32C279.54 202.83 282.52 194.57 287.74 187.76C293.05 180.84 300.25 176.05 309.15 173.52C309.71 173.36 310.29 173.27 310.88 173.25C311.2 173.24 311.52 173.24 311.83 173.24C324.81 173.24 335.42 180.94 343.5 196.18C348.35 183.23 354.11 175.29 361.09 171.95C361.43 171.79 361.78 171.65 362.13 171.55C368.06 169.78 373.08 168.93 377.46 168.93C385.53 168.93 391.95 171.56 396.55 176.75C401.58 181.49 405.13 187.56 407.11 194.79C408.38 199.48 409.16 206.42 409.52 216.03C409.52 216.09 409.86 240.78 409.86 240.78C410.3 259.01 410.53 274.28 410.53 286.17V286.34C410.53 293.61 408.9 299.54 405.69 303.98C402.8 307.89 399.04 310.46 394.49 311.66C392.81 312.14 390.49 312.7 387.39 313.39C383.86 314.22 382.4 314.39 381.3 314.39Z" fill="#DB2662"/>
<path d="M406.97 283.49C406.97 289.26 405.81 293.75 403.48 296.97C401.59 299.52 399.15 301.19 396.16 301.96C394.61 302.4 392.33 302.96 389.34 303.62C387.01 304.18 385.51 304.45 384.85 304.45C380.08 304.45 376.03 302.32 372.71 298.05C369.38 293.78 367.72 288.48 367.72 282.16C367.72 279.72 368.33 274.07 369.55 265.19C370.55 258.31 370.6 252.88 369.72 248.89C369.16 250.55 367.45 255.6 364.56 264.03C360.79 274.68 357.41 281.16 354.41 283.49C352.75 284.82 350.75 285.49 348.42 285.49C346.64 285.49 344.81 284.88 342.93 283.66C336.94 277.45 332.28 265.42 328.96 247.56C328.4 250.33 328.13 253.16 328.13 256.04C328.13 257.7 328.57 262.97 329.46 271.84C330.13 278.16 330.13 283.21 329.46 286.98C328.57 291.86 326.19 296.19 322.31 299.96C318.43 302.18 314.71 303.29 311.16 303.29C306.28 303.29 301.79 301.13 297.68 296.8C293.13 289.04 290.47 283.88 289.69 281.33C288.03 276.34 287.19 268.85 287.19 258.87C287.19 249.67 287.96 233.36 289.52 209.96C290.07 201.87 292.54 194.96 296.92 189.25C301.3 183.54 307.21 179.63 314.64 177.52C329.39 177.08 340.59 189.78 348.24 215.62C348.79 210.85 350.51 204.53 353.4 196.66C357.61 185.13 362.38 178.08 367.71 175.53C372.92 173.98 377.36 173.2 381.02 173.2C387.12 173.2 391.78 175.09 394.99 178.86C399.2 182.74 402.14 187.73 403.81 193.83C404.92 197.93 405.64 204.48 405.97 213.46C406.08 221.67 406.19 229.87 406.3 238.08C406.74 256.27 406.97 271.35 406.97 283.33V283.49Z" fill="#E97DA1"/>
<path d="M388.21 293.8C386.52 293.77 384.3 293.27 381.85 290.13C379.5 287.11 378.36 283.35 378.36 278.61C378.36 277.42 378.59 273.76 380.12 262.61C381.25 254.86 381.27 248.69 380.18 243.8C379.49 240.69 376.81 238.41 373.62 238.25C373.5 238.24 373.37 238.24 373.25 238.24C370.21 238.24 367.49 240.18 366.52 243.09C365.93 244.85 364.06 250.34 361.39 258.15C356.57 271.74 353.88 274.12 353.59 274.34C353.57 274.36 353.54 274.38 353.51 274.4C353.22 274.63 352.84 274.84 351.96 274.84C351.86 274.84 351.55 274.81 350.99 274.53C347.61 270.63 343.07 261.96 339.48 242.71C338.86 239.37 335.95 236.93 332.55 236.91C332.53 236.91 332.52 236.91 332.5 236.91C329.12 236.91 326.21 239.3 325.54 242.61C324.9 245.82 324.57 249.15 324.57 252.49C324.57 253.83 324.73 256.91 325.94 269C326.54 274.67 326.56 279.1 326.01 282.2C325.44 285.33 323.97 288.12 321.53 290.68C319.06 291.98 316.76 292.64 314.7 292.64C312.01 292.64 309.46 291.42 306.91 288.91C301.51 279.64 300.3 276.6 300.03 275.72C300.01 275.66 299.99 275.6 299.97 275.54C299 272.62 297.84 266.75 297.84 255.33C297.84 246.3 298.62 230 300.15 206.89C300.61 200.17 302.56 194.65 306.1 190.03C309.39 185.75 313.69 182.81 319.24 181.07C329.89 181.29 338.55 192.39 344.98 214.09C345.88 217.13 348.67 219.17 351.78 219.17C351.98 219.17 352.19 219.16 352.39 219.14C355.75 218.85 358.44 216.24 358.83 212.88C359.32 208.69 360.92 202.85 363.6 195.54C368.06 183.34 372.06 179.68 373.91 178.59C378.16 177.37 381.74 176.74 384.55 176.74C389.81 176.74 391.96 178.55 393.12 179.91C393.3 180.12 393.5 180.33 393.71 180.52C396.95 183.51 399.17 187.31 400.49 192.14C401.15 194.57 402.01 199.68 402.4 210.08C402.49 216.93 402.73 234.62 402.73 234.62C402.73 234.64 402.73 234.67 402.73 234.7C403.17 252.83 403.39 268 403.39 279.78V279.95C403.39 284.1 402.65 287.32 401.25 289.26C400.37 290.45 399.32 291.17 397.9 291.54C397.84 291.55 397.78 291.57 397.73 291.59C396.33 291.99 394.17 292.52 391.32 293.15C391.28 293.16 391.25 293.17 391.21 293.17C389.29 293.63 388.47 293.77 388.21 293.8Z" fill="#F8D4E0"/>
<path d="M393.87 284.45C393.71 284.31 393.46 284.06 393.13 283.64C392.27 282.54 391.14 280.61 391.14 276.48C391.14 276.03 391.22 273.19 392.84 261.45C394.09 252.87 394.08 245.88 392.8 240.13C391.42 233.92 386.03 229.36 379.68 229.03C379.43 229.02 379.18 229.01 378.94 229.01C372.83 229.01 367.42 232.91 365.48 238.7C364.9 240.43 363.04 245.88 360.38 253.67C359.44 256.33 358.6 258.49 357.87 260.24C356.06 255.83 354 249.18 352.15 239.27C350.91 232.6 345.08 227.72 338.29 227.67C338.27 227.67 338.21 227.67 338.19 227.67C331.45 227.67 325.59 232.47 324.27 239.08C323.53 242.75 323.16 246.54 323.16 250.36C323.16 252.04 323.33 255.28 324.56 267.58C325.22 273.84 325 277.15 324.71 278.83C324.45 280.23 323.86 281.51 322.85 282.77C321.59 283.31 320.8 283.4 320.4 283.4C319.72 283.4 318.91 282.87 318.22 282.29C313.34 273.86 312.55 271.58 312.52 271.49C312.49 271.4 312.45 271.26 312.4 271.13C311.88 269.57 310.65 264.63 310.65 253.2C310.65 244.33 311.42 228.19 312.95 205.23C313.31 199.96 314.78 195.7 317.45 192.22C319.61 189.4 322.31 187.45 325.86 186.13C332.49 187.18 338.86 196.99 343.89 213.97C345.66 219.96 351.26 224.14 357.5 224.14C357.9 224.14 358.32 224.12 358.72 224.09C365.41 223.51 370.83 218.25 371.61 211.58C371.9 209.08 372.9 204.32 375.99 195.86C379.18 187.14 381.82 183.93 382.82 182.95C386.59 181.95 388.93 181.72 390.27 181.72C391.05 181.72 392.92 181.79 393.45 182.4C393.82 182.83 394.21 183.24 394.63 183.62C396.9 185.71 398.4 188.34 399.37 191.89C399.73 193.24 400.64 197.57 401.04 208.14C401.13 214.9 401.36 231.83 401.37 232.57C401.37 232.64 401.37 232.7 401.37 232.77C401.81 250.83 402.03 265.93 402.03 277.65V277.82C402.03 280.48 401.64 282.02 401.38 282.67C400.45 282.93 398.71 283.38 395.51 284.09L395.29 284.14C394.68 284.27 394.22 284.37 393.87 284.45Z" fill="url(#paint1_linear_7_268)"/>
<path opacity="0.8" d="M390.56 198.71C395.265 198.71 399.08 194.895 399.08 190.19C399.08 185.485 395.265 181.67 390.56 181.67C385.855 181.67 382.04 185.485 382.04 190.19C382.04 194.895 385.855 198.71 390.56 198.71Z" fill="white"/>
<path d="M749.31 314.39C729.37 314.39 713.62 306.7 702.49 291.53C693.3 279.03 688.64 263.74 688.64 246.07C688.64 238.18 689.36 230.75 690.79 223.98C697.51 192.08 712.45 173.77 735.21 169.55C737.39 169.14 739.73 168.93 742.16 168.93C752.48 168.93 762.55 172.33 772.11 179.04C781.7 185.77 788.27 194.17 791.63 204.01C798.16 223.25 801.33 237.98 801.33 249.06C801.33 257.77 799.82 267.47 796.83 277.91C796.86 278.72 796.75 279.54 796.49 280.34C793.14 290.76 787.14 299.14 778.65 305.23C770.2 311.31 760.32 314.39 749.31 314.39ZM745.54 237.64C745.03 240.79 744.77 244.11 744.77 247.58C744.77 251.74 745.15 254.48 745.58 256.23C745.83 254.27 746.04 251.44 746.04 247.41C746.04 244.01 745.87 240.75 745.54 237.64Z" fill="#DB2662"/>
<path d="M793.12 275.17L793.29 275.34C790.4 284.32 785.33 291.42 778.07 296.63C770.8 301.84 762.4 304.45 752.87 304.45C735.24 304.45 721.54 297.8 711.78 284.49C703.46 273.18 699.3 259.43 699.3 243.23C699.3 235.8 699.97 228.92 701.3 222.6C707.4 193.65 720.32 177.35 740.06 173.69C741.83 173.36 743.72 173.19 745.72 173.19C754.59 173.19 763.21 176.13 771.59 182.01C779.96 187.89 785.59 195.04 788.48 203.47C794.69 221.77 797.8 236.02 797.8 246.22C797.8 254.87 796.19 264.52 792.98 275.17H793.12ZM751.87 263.2V263.03C755.09 262.48 756.69 256.32 756.69 244.56C756.69 237.8 756.08 231.56 754.86 225.84C753.64 220.13 752.31 217.16 750.87 216.94C748.43 216.27 746.21 218.94 744.22 224.93C742.22 230.92 741.23 237.52 741.23 244.73C741.22 258.15 744.77 264.31 751.87 263.2Z" fill="#E97DA1"/>
<path d="M756.41 293.8C741.03 293.8 729.46 288.22 721.05 276.74C713.68 266.72 709.95 254.25 709.95 239.68C709.95 232.77 710.57 226.33 711.79 220.51C717.29 194.42 728.12 180.23 744.9 177.12C746.25 176.87 747.71 176.74 749.26 176.74C756.7 176.74 763.83 179.2 771.05 184.27C778.23 189.31 782.89 195.18 785.3 202.22C791.23 219.68 794.23 233.3 794.23 242.67C794.23 250.58 792.71 259.63 789.71 269.56C789.51 270.21 789.41 270.88 789.41 271.54C786.92 278.17 783 283.34 777.48 287.3C771.4 291.68 764.51 293.8 756.41 293.8ZM753.69 206.2C745.34 206.2 742.09 215.94 741.03 219.14C738.8 225.83 737.67 233.24 737.67 241.18C737.67 262.41 746.47 266.87 753.85 266.87C754.71 266.87 755.61 266.8 756.51 266.66C757.42 266.52 758.27 266.2 759.03 265.76C767.34 262.09 767.34 248.06 767.34 241.02C767.34 233.79 766.67 227 765.35 220.82C764.37 216.25 762.57 207.83 755.93 206.46C755.19 206.29 754.44 206.2 753.69 206.2Z" fill="#F8D4E0"/>
<path d="M762.09 284.57C748.95 284.57 739.53 280.07 732.45 270.41C725.99 261.63 722.72 250.57 722.72 237.55C722.72 231.14 723.29 225.18 724.41 219.85C729.25 196.89 738.23 184.51 751.86 181.98C752.79 181.81 753.82 181.72 754.93 181.72C760.86 181.72 766.66 183.76 772.64 187.96C778.54 192.11 782.34 196.83 784.25 202.4C791.32 223.22 792.8 234.64 792.8 240.55C792.8 247.77 791.38 256.12 788.58 265.39C788.34 266.19 788.17 267.01 788.07 267.83C786.08 272.67 783.11 276.47 779 279.41C774.12 282.94 768.74 284.57 762.09 284.57ZM759.37 196.97C753.23 196.97 744.87 200.06 739.97 214.76C737.5 222.17 736.25 230.34 736.25 239.05C736.25 268.65 752.53 271.84 759.53 271.84C760.76 271.84 762.03 271.74 763.29 271.54C764.93 271.28 766.5 270.75 767.95 269.95C780.12 264.24 780.12 247.14 780.12 238.88C780.12 231.16 779.4 223.86 777.98 217.2C776.86 211.97 774.24 199.74 763.14 197.39C761.9 197.11 760.63 196.97 759.37 196.97Z" fill="url(#paint2_linear_7_268)"/>
<path opacity="0.8" d="M766.86 201.07C771.566 201.07 775.38 197.255 775.38 192.55C775.38 187.845 771.566 184.03 766.86 184.03C762.155 184.03 758.34 187.845 758.34 192.55C758.34 197.255 762.155 201.07 766.86 201.07Z" fill="white"/>
<path d="M549.75 312.4C535.99 312.4 525.34 308.43 518.09 300.6C510.99 292.93 507.38 281.69 507.38 267.2V257.39C507.38 256.04 507.44 254.09 507.55 251.42C507.55 251.39 507.55 251.37 507.55 251.34C507.65 249.52 507.7 248.23 507.71 247.48C507.15 224.75 508.14 206.21 510.65 192.4C510.72 192.03 510.81 191.66 510.94 191.31C513.4 184.33 516.39 179.48 520.08 176.51C523.85 173.46 529.07 171.7 536.03 171.13C537.42 171.01 538.97 170.94 540.6 170.94C547.22 170.94 552.33 172.6 555.8 175.88C555.85 175.93 555.9 175.97 555.95 176.02C557 177.07 558.46 178.93 562.1 185.36C562.41 185.9 562.64 186.48 562.79 187.08C564.82 194.95 565.84 204.95 565.84 216.8C565.84 224.07 565.18 234.99 563.81 250.21C563.59 252.72 563.44 254.79 563.33 256.49C566.05 256.02 568.96 255.79 572.05 255.79C574.52 255.79 576.44 256.11 578.04 256.8C581.6 258.12 586.29 261.17 589.12 268.23C590.31 271.28 591.14 275.16 591.66 280.14C591.75 280.58 591.79 281.04 591.79 281.51V281.84C591.79 282.8 591.6 283.73 591.25 284.57C589.45 295.3 584.8 302.75 577.41 306.73C577.18 306.85 576.94 306.97 576.7 307.06C567.9 310.6 558.84 312.4 549.75 312.4Z" fill="#BEB439"/>
<path d="M588.24 278.67H588.07C586.85 288.21 583.35 294.53 577.59 297.63C569.6 300.85 561.51 302.45 553.3 302.45C529.79 302.45 518.03 289.75 518.03 264.35V254.54C518.03 253.32 518.08 251.44 518.2 248.88C518.31 246.88 518.37 245.44 518.37 244.55C517.81 222.15 518.76 204.24 521.2 190.82C523.2 185.16 525.5 181.28 528.1 179.17C530.7 177.06 534.73 175.79 540.16 175.34C541.38 175.23 542.71 175.17 544.15 175.17C548.92 175.17 552.36 176.17 554.46 178.16C555.35 179.05 557.01 181.65 559.45 185.98C561.33 193.3 562.28 202.62 562.28 213.93C562.28 220.92 561.61 231.84 560.28 246.7C559.39 257.01 559.28 262.5 559.95 263.17C564.16 261.06 569.37 260.01 575.59 260.01C577.14 260.01 578.25 260.18 578.92 260.51C582.14 261.62 584.52 264.12 586.07 268C587.07 270.55 587.79 274.21 588.23 278.98V278.67H588.24Z" fill="#FDF370"/>
<path d="M556.85 291.81C537.37 291.81 528.68 282.25 528.68 260.81V251C528.68 249.88 528.73 248.09 528.84 245.69C528.96 243.51 529.01 242.03 529.01 241.02C529.01 240.96 529.01 240.9 529.01 240.84C528.48 219.35 529.36 201.95 531.62 189.12C533.64 183.58 535.42 181.71 536.1 181.16C536.92 180.49 539.08 179.31 544.28 178.89C545.36 178.79 546.49 178.75 547.69 178.75C550.81 178.75 552.42 179.3 552.99 179.69C553.3 180.1 554.24 181.43 556.34 185.12C557.92 191.71 558.72 200.21 558.72 210.41C558.72 217.15 558.06 227.97 556.75 242.55C555.29 259.49 555.81 262.01 558.47 264.67C559.83 266.03 561.65 266.75 563.49 266.75C564.57 266.75 565.65 266.5 566.66 266C569.86 264.4 574.06 263.59 579.12 263.59C579.5 263.59 579.76 263.6 579.9 263.62C579.97 263.65 580.05 263.68 580.13 263.7C580.61 263.87 581.88 264.31 583.01 267.11C583.44 268.22 584.06 270.42 584.52 274.46C583.62 281.22 581.44 285.66 578.05 287.66C571.11 290.41 563.97 291.81 556.85 291.81Z" fill="#FEF694"/>
<path d="M562.53 282.58C554.81 282.58 549.53 280.9 546.39 277.45C543.12 273.85 541.46 267.54 541.46 258.69V248.88C541.46 248.19 541.49 246.76 541.61 243.92C541.74 241.6 541.79 240.05 541.79 238.9C541.79 238.79 541.79 238.67 541.79 238.56C541.28 217.89 542.08 201.18 544.19 188.87C545.15 186.35 545.92 185.11 546.27 184.63C546.78 184.44 548.06 184.05 550.55 183.85C551.47 183.77 552.38 183.73 553.39 183.73C553.71 183.73 554 183.74 554.25 183.75C554.55 184.25 554.92 184.87 555.36 185.62C556.66 191.54 557.32 199.16 557.32 208.29C557.32 214.83 556.67 225.43 555.38 239.8C553.96 256.23 553.75 262.18 559.15 267.58C561.83 270.26 565.4 271.74 569.19 271.74C571.38 271.74 573.57 271.22 575.53 270.24C577.24 269.38 579.59 268.85 582.42 268.66C582.6 269.39 582.84 270.55 583.06 272.27C582.43 276.25 581.32 278.43 580.42 279.23C574.53 281.44 568.51 282.58 562.53 282.58Z" fill="url(#paint3_linear_7_268)"/>
<path opacity="0.8" d="M548.82 198.42C553.526 198.42 557.34 194.606 557.34 189.9C557.34 185.195 553.526 181.38 548.82 181.38C544.115 181.38 540.3 185.195 540.3 189.9C540.3 194.606 544.115 198.42 548.82 198.42Z" fill="white"/>
<path d="M457.87 312.4C443.05 312.4 433.82 304.73 431.87 290.81C429.28 272.83 428.03 256.29 428.14 241.69C428.25 226.26 429.47 212.34 431.76 200.32C431.85 199.87 431.98 199.42 432.15 199L436.64 187.85C436.84 187.36 437.09 186.89 437.39 186.46C444.53 176.15 454.78 170.93 467.85 170.93C470.81 170.93 473.54 171.22 475.96 171.78C476.43 171.89 476.89 172.05 477.34 172.26C482.36 174.59 485.83 178.9 487.37 184.7C487.44 184.96 487.49 185.22 487.53 185.48L489.03 195.63C489.08 195.97 489.11 196.32 489.11 196.67C489.11 201.18 489.22 206.69 489.44 213.06C489.67 219.89 489.78 223.98 489.78 225.95C489.89 248.2 488.34 268.45 485.18 286.09C482.05 303.63 472.34 309.77 464.74 311.82C464.35 311.93 463.94 312 463.54 312.04C459.96 312.36 458.59 312.4 457.87 312.4Z" fill="#008F85"/>
<path d="M485.54 193.82C485.54 198.37 485.65 203.91 485.87 210.46C486.09 217.01 486.2 221.22 486.2 223.1C486.31 245.06 484.81 264.69 481.71 281.99C479.71 293.19 474.61 299.9 466.41 302.12C463.97 302.34 462.31 302.45 461.42 302.45C450.22 302.45 443.9 297.29 442.45 286.98C439.9 269.24 438.68 253.21 438.79 238.9C438.9 223.82 440.06 210.45 442.28 198.81L446.77 187.66C452.54 179.34 460.74 175.18 471.39 175.18C473.83 175.18 475.99 175.4 477.88 175.85C480.98 177.29 483.04 179.9 484.03 183.67L485.54 193.82Z" fill="#33CCC1"/>
<path d="M464.97 291.81C456.15 291.81 453.82 288.07 453.04 282.46C450.55 265.12 449.34 249.31 449.45 235.42C449.55 221.13 450.64 208.3 452.69 197.27L456.61 187.55C461.02 181.54 466.87 178.74 474.96 178.74C476.47 178.74 477.82 178.84 479 179.05C479.6 179.46 480.2 180.16 480.64 181.61L482 190.8C482.01 195.37 482.12 200.87 482.34 207.15C482.56 213.62 482.67 217.8 482.67 219.55C482.78 241.01 481.3 260.39 478.29 277.19C476.42 287.71 472.02 290.51 468.66 291.56C466.09 291.79 465.2 291.81 464.97 291.81Z" fill="#CCF2F0"/>
<path d="M470.64 282.58C467.28 282.58 466.48 281.89 466.48 281.88C466.48 281.88 466.05 281.47 465.76 279.35C463.31 262.35 462.13 246.88 462.24 233.35C462.34 219.77 463.35 207.59 465.23 197.14L468.52 188.98C471.32 185.5 474.76 183.9 479.78 183.74L480.59 189.21C480.61 193.73 480.72 199.13 480.93 205.28C481.2 213.25 481.25 216.29 481.25 217.44C481.35 238.5 479.92 257.46 476.98 273.82C475.83 280.27 473.9 281.92 472.8 282.45C471.25 282.56 470.7 282.58 470.64 282.58Z" fill="url(#paint4_linear_7_268)"/>
<path opacity="0.8" d="M480.125 191.362C480.879 186.717 477.724 182.341 473.08 181.587C468.435 180.833 464.058 183.987 463.305 188.632C462.551 193.277 465.705 197.653 470.35 198.407C474.995 199.161 479.371 196.007 480.125 191.362Z" fill="white"/>
<path d="M639.14 312.4C624.32 312.4 615.09 304.73 613.14 290.81C610.55 272.83 609.3 256.29 609.41 241.69C609.52 226.26 610.74 212.34 613.03 200.32C613.12 199.87 613.25 199.42 613.42 199L617.91 187.85C618.11 187.36 618.36 186.89 618.66 186.46C625.8 176.15 636.05 170.93 649.12 170.93C652.08 170.93 654.81 171.22 657.23 171.78C657.7 171.89 658.16 172.05 658.61 172.26C663.63 174.59 667.1 178.9 668.64 184.7C668.71 184.96 668.76 185.22 668.8 185.48L670.3 195.63C670.35 195.97 670.38 196.32 670.38 196.67C670.38 201.18 670.49 206.69 670.71 213.06C670.94 219.89 671.05 223.98 671.05 225.95C671.16 248.2 669.61 268.45 666.45 286.09C663.32 303.63 653.61 309.77 646.01 311.82C645.62 311.93 645.21 312 644.81 312.04C641.23 312.36 639.86 312.4 639.14 312.4Z" fill="#008F85"/>
<path d="M666.81 193.82C666.81 198.37 666.92 203.91 667.14 210.46C667.36 217.01 667.47 221.22 667.47 223.1C667.58 245.06 666.08 264.69 662.98 281.99C660.98 293.19 655.88 299.9 647.68 302.12C645.24 302.34 643.58 302.45 642.69 302.45C631.49 302.45 625.17 297.29 623.72 286.98C621.17 269.24 619.95 253.21 620.06 238.9C620.17 223.82 621.33 210.45 623.55 198.81L628.04 187.66C633.81 179.34 642.01 175.18 652.66 175.18C655.1 175.18 657.26 175.4 659.15 175.85C662.25 177.29 664.31 179.9 665.3 183.67L666.81 193.82Z" fill="#33CCC1"/>
<path d="M646.24 291.81C637.42 291.81 635.09 288.07 634.31 282.46C631.82 265.12 630.61 249.31 630.72 235.42C630.82 221.13 631.91 208.3 633.96 197.27L637.88 187.55C642.29 181.54 648.14 178.74 656.23 178.74C657.74 178.74 659.09 178.84 660.27 179.05C660.87 179.46 661.47 180.16 661.91 181.61L663.27 190.8C663.28 195.37 663.39 200.87 663.61 207.15C663.83 213.62 663.94 217.8 663.94 219.55C664.05 241.01 662.57 260.39 659.56 277.19C657.69 287.71 653.29 290.51 649.93 291.56C647.36 291.79 646.46 291.81 646.24 291.81Z" fill="#CCF2F0"/>
<path d="M651.9 282.58C648.54 282.58 647.74 281.89 647.74 281.88C647.74 281.88 647.31 281.47 647.02 279.35C644.57 262.35 643.39 246.88 643.5 233.35C643.6 219.77 644.61 207.59 646.49 197.14L649.78 188.98C652.58 185.5 656.02 183.9 661.04 183.74L661.85 189.21C661.87 193.73 661.98 199.13 662.19 205.28C662.46 213.25 662.51 216.29 662.51 217.44C662.61 238.5 661.18 257.46 658.24 273.82C657.09 280.27 655.16 281.92 654.06 282.45C652.51 282.56 651.97 282.58 651.9 282.58Z" fill="url(#paint5_linear_7_268)"/>
<path opacity="0.8" d="M661.393 191.354C662.147 186.709 658.993 182.333 654.348 181.579C649.703 180.825 645.327 183.979 644.573 188.624C643.819 193.269 646.973 197.645 651.618 198.399C656.263 199.153 660.639 195.999 661.393 191.354Z" fill="white"/>
<path d="M468.5 372.07C465.11 365.91 453.83 364.01 448.31 370.85C441.07 379.83 430 409.76 437.05 415.58C444.71 421.9 449.28 416.73 451.15 412.95C453.07 409.05 455.26 405.19 461.55 407C464.79 407.93 465.1 413.64 467.35 416.31C470.12 419.6 475.31 418.76 477.15 418.07C484.55 415.34 481.19 406.56 479.26 400.23C476.45 390.99 473.2 380.61 468.5 372.07ZM459.04 397.88C452.51 398.03 453.44 391.84 456.64 388.16C457.53 387.12 459.03 386.93 460.17 387.94C460.96 388.63 467.33 397.69 459.04 397.88Z" fill="#00BFB2"/>
<path d="M449.73 377.22C446.27 382.17 445.02 384.66 443.87 384.29C442.61 383.89 444.58 378.18 448.27 373.4C451.96 368.62 455.56 367.69 456.32 369.32C457.26 371.35 453.34 372.06 449.73 377.22Z" fill="white"/>
<path d="M442.92 387.72C443.55 387.72 444.06 387.21 444.06 386.58C444.06 385.95 443.55 385.44 442.92 385.44C442.29 385.44 441.78 385.95 441.78 386.58C441.78 387.21 442.29 387.72 442.92 387.72Z" fill="white"/>
<path d="M295.58 385.49C294.27 385.28 289.85 383.88 291.31 381.68C292.1 380.48 293.38 380.62 294 380.82C295.55 381.33 295.93 383.56 298.02 384.5C300.54 385.63 304.36 385.44 306.51 383.27C310 379.76 310.21 374.27 302.85 370.15C294.92 365.71 283.59 367.84 278.27 375.4C272.21 384 277.73 395.8 287.17 397.95C287.55 398.04 291.86 398.93 294.54 400.08C296.55 400.95 297.58 402.15 296.2 403.27C295.08 404.19 293.6 403.4 292.95 403.07C291.78 402.48 289.76 400.39 287.75 399.53C283.88 397.87 275.32 399.84 276.98 406.61C277.87 410.24 279.99 412.96 284.34 415.17C293.21 419.67 306.14 417.14 311.25 408.12C317.99 396.22 305.96 387.31 295.58 385.49Z" fill="#00BFB2"/>
<path d="M282.72 377.05C278.92 381.74 279.56 384.97 278.45 384.49C277.24 383.96 277.35 378.57 281.43 374.12C284.86 370.38 289.04 369.26 289.51 370.49C289.95 371.6 287.38 371.3 282.72 377.05Z" fill="white"/>
<path d="M279.68 386.96C279.62 387.59 279.06 388.04 278.43 387.98C277.8 387.92 277.35 387.36 277.41 386.73C277.47 386.1 278.03 385.65 278.66 385.71C279.28 385.77 279.74 386.33 279.68 386.96Z" fill="white"/>
<path d="M666.19 389.02C661.24 419.73 708.85 427.03 714.39 396.69C714.16 398.09 714.02 398.99 714.48 396.2C715.05 392.7 714.83 394.04 714.56 395.69C719 364.93 671.17 358.5 666.19 389.02ZM696.49 393.53C696.4 394.04 696.42 393.91 696.47 393.65C695.05 401.26 682.85 399.63 684.21 391.71C685.42 383.92 697.63 385.61 696.51 393.39C696.57 392.99 696.64 392.61 696.49 393.53Z" fill="#00BFB2"/>
<path d="M675.6 380.92C671.74 385.57 671.44 388.16 670.34 387.68C669.13 387.15 670.05 382.19 674.13 377.74C677.56 374 683.03 371.4 683.53 373.19C683.84 374.32 680.12 375.46 675.6 380.92Z" fill="white"/>
<path d="M670.79 389.75C670.73 390.38 670.17 390.83 669.54 390.77C668.91 390.71 668.46 390.15 668.52 389.52C668.58 388.89 669.14 388.44 669.77 388.5C670.4 388.57 670.86 389.13 670.79 389.75Z" fill="white"/>
<path d="M384.34 367.18C377.48 365.95 365.23 366.9 357.63 369.53C349.19 372.46 349.17 378.68 351.17 383.71C352.68 387.49 355.83 387.71 358.68 388.06C361.4 388.39 363.81 388.86 364.09 392.72C364.56 399.32 366.42 410.89 367.92 414.75C370.2 420.64 380.47 418.68 382.62 415.7C385.09 412.28 385.24 399.97 385.01 392.75C384.9 389.33 386 388.83 386.52 388.81C394.15 388.53 397.64 386.01 397.91 378.72C398.21 370.98 393.85 368.89 384.34 367.18Z" fill="#00BFB2"/>
<path d="M355.61 375.24C353.01 378.41 354.92 381.83 352.88 381.83C351.87 381.83 350.01 376.73 354.34 372.51C356.75 370.17 362.97 368.24 363.34 369.66C363.73 371.12 359.73 370.23 355.61 375.24Z" fill="white"/>
<path d="M354.99 384.24C354.93 384.87 354.36 385.32 353.74 385.26C353.11 385.19 352.66 384.63 352.72 384.01C352.79 383.38 353.35 382.93 353.97 382.99C354.6 383.05 355.05 383.61 354.99 384.24Z" fill="white"/>
<path d="M553.09 367.18C546.23 365.95 533.98 366.9 526.38 369.53C517.94 372.46 517.92 378.68 519.92 383.71C521.43 387.49 524.58 387.71 527.43 388.06C530.15 388.39 532.56 388.86 532.84 392.72C533.31 399.32 535.17 410.89 536.67 414.75C538.95 420.64 549.22 418.68 551.37 415.7C553.84 412.28 553.99 399.97 553.76 392.75C553.65 389.33 554.75 388.83 555.27 388.81C562.9 388.53 566.39 386.01 566.66 378.72C566.96 370.98 562.6 368.89 553.09 367.18Z" fill="#00BFB2"/>
<path d="M524.37 375.24C521.77 378.41 523.68 381.83 521.64 381.83C520.63 381.83 518.77 376.73 523.1 372.51C525.51 370.17 531.73 368.24 532.1 369.66C532.48 371.12 528.48 370.23 524.37 375.24Z" fill="white"/>
<path d="M523.74 384.24C523.68 384.87 523.11 385.32 522.49 385.26C521.86 385.19 521.41 384.63 521.47 384.01C521.54 383.38 522.1 382.93 522.72 382.99C523.35 383.05 523.81 383.61 523.74 384.24Z" fill="white"/>
<path d="M611.59 416.04C614.18 418.26 621.41 419.04 624.14 415.15C628.32 409.19 629.01 393.63 628.96 386C628.93 381.57 628.88 372.9 624.14 369.65C619.74 366.63 610.32 365.97 605.99 371.17C601.85 376.14 604.09 398.28 605.38 403.74C606.52 408.56 608.04 413 611.59 416.04Z" fill="#00BFB2"/>
<path d="M608.54 380.78C607.61 386.74 608.04 389.66 606.83 389.75C605.51 389.85 604.42 381.67 605.97 375.84C607.21 371.18 609.96 369.66 610.91 370.61C611.79 371.48 609.77 372.89 608.54 380.78Z" fill="white"/>
<path d="M608.11 391.75C608.34 392.33 608.06 393 607.48 393.23C606.9 393.46 606.23 393.18 606 392.6C605.76 392.02 606.05 391.35 606.63 391.12C607.21 390.88 607.87 391.17 608.11 391.75Z" fill="white"/>
<path d="M783.8 369.29C780.03 372.6 779.37 376.48 779.5 382.56C773.96 374.43 770.5 367.48 761.32 368.61C750.44 369.96 751.64 383.75 751.87 392.32C752.12 401.95 752.92 412.17 757.07 415.01C761.51 418.05 765.89 417.66 768.86 415.26C772.16 412.6 771.53 403.86 771.71 401.68C775.05 406.35 779.34 411.28 783.78 414.92C787.55 418.01 793.42 419.19 796.49 414.88C803.33 405.25 801.94 381.92 798.39 373.56C795.18 366.01 786.72 366.72 783.8 369.29Z" fill="#00BFB2"/>
<path d="M757.1 380.67C755.69 386.54 755.88 389.48 754.68 389.47C753.36 389.46 752.93 381.22 754.95 375.53C756.56 370.99 759.43 369.69 760.3 370.72C761.09 371.67 758.97 372.91 757.1 380.67Z" fill="white"/>
<path d="M755.78 391.57C755.97 392.17 755.63 392.81 755.03 393C754.43 393.19 753.79 392.85 753.6 392.25C753.41 391.65 753.75 391.01 754.35 390.82C754.96 390.63 755.6 390.97 755.78 391.57Z" fill="white"/>
<defs>
<linearGradient id="paint0_linear_7_268" x1="80.5428" y1="67.4537" x2="152.157" y2="67.4537" gradientUnits="userSpaceOnUse">
<stop offset="1.62498e-06" stop-color="#00BFB2"/>
<stop offset="0.4637" stop-color="#FDF04C"/>
<stop offset="0.5401" stop-color="#F4BC52"/>
<stop offset="0.6184" stop-color="#ED8F57"/>
<stop offset="0.6972" stop-color="#E6695B"/>
<stop offset="0.7753" stop-color="#E14C5E"/>
<stop offset="0.8522" stop-color="#DE3760"/>
<stop offset="0.9277" stop-color="#DC2A62"/>
<stop offset="1" stop-color="#DB2662"/>
</linearGradient>
<linearGradient id="paint1_linear_7_268" x1="356.312" y1="284.45" x2="356.312" y2="181.716" gradientUnits="userSpaceOnUse">
<stop stop-color="#F4C47A"/>
<stop offset="0.8894" stop-color="#DCDCDC"/>
</linearGradient>
<linearGradient id="paint2_linear_7_268" x1="757.769" y1="284.574" x2="757.769" y2="181.716" gradientUnits="userSpaceOnUse">
<stop stop-color="#F4C47A"/>
<stop offset="0.8894" stop-color="#DCDCDC"/>
</linearGradient>
<linearGradient id="paint3_linear_7_268" x1="562.262" y1="282.578" x2="562.262" y2="183.712" gradientUnits="userSpaceOnUse">
<stop stop-color="#F4C47A"/>
<stop offset="0.8894" stop-color="#DCDCDC"/>
</linearGradient>
<linearGradient id="paint4_linear_7_268" x1="471.732" y1="282.578" x2="471.732" y2="183.726" gradientUnits="userSpaceOnUse">
<stop stop-color="#F4C47A"/>
<stop offset="0.8894" stop-color="#DCDCDC"/>
</linearGradient>
<linearGradient id="paint5_linear_7_268" x1="652.996" y1="282.578" x2="652.996" y2="183.726" gradientUnits="userSpaceOnUse">
<stop stop-color="#F4C47A"/>
<stop offset="0.8894" stop-color="#DCDCDC"/>
</linearGradient>
</defs>
</svg>
