<svg width="42" height="50" viewBox="0 0 42 50" fill="none" xmlns="http://www.w3.org/2000/svg">
<path d="M10.23 0.719996C12.94 0.719996 15.66 0.740047 18.37 0.710047C19.14 0.700047 19.71 0.940045 20.23 1.52004C27.1 9.04004 33.99 16.54 40.88 24.04C41.45 24.66 41.72 25.12 40.99 25.91C34.24 33.2 27.52 40.51 20.85 47.87C19.89 48.93 18.9 49.32 17.49 49.3C12.32 49.22 7.14005 49.27 1.96005 49.26C1.58005 49.26 1.02 49.48 0.850002 49C0.720002 48.64 1.20003 48.38 1.44003 48.11C8.21003 40.73 14.9701 33.34 21.7801 25.99C22.5201 25.2 22.37 24.7301 21.73 24.0301C16.83 18.7201 11.9601 13.39 7.09005 8.07003C5.17005 5.98003 3.25005 3.89 1.34005 1.79C1.12005 1.55 0.720002 1.33002 0.850002 0.990015C1.02 0.560015 1.5 0.740015 1.85 0.740015C4.63 0.710015 7.43001 0.719996 10.23 0.719996Z" fill="#DB2662"/>
</svg>
