<svg width="58" height="58" viewBox="0 0 58 58" fill="none" xmlns="http://www.w3.org/2000/svg">
<path d="M11.0899 55.27C10.6399 54.49 10.41 53.65 10.41 52.74C10.42 50.47 10.4 48.2 10.42 45.93C10.43 45.4 10.2599 45.2 9.71992 45.23C8.11992 45.33 6.55995 45.13 5.12995 44.34C2.23995 42.74 0.639932 40.3 0.609932 36.96C0.569932 32.47 0.589923 27.99 0.599923 23.5C0.609923 18.96 4.29 15.25 8.8 15.24C8.86 15.24 8.90992 15.24 8.96992 15.24C10.6399 15.22 10.4 15.48 10.41 13.76C10.42 12.23 10.41 10.7 10.41 9.15997C10.43 4.65997 14.1199 0.950005 18.5999 0.950005C25.4499 0.940005 32.3 0.940005 39.14 0.950005C43.58 0.960005 47.27 4.68002 47.29 9.15002C47.3 10.94 47.29 12.73 47.29 14.52C47.29 15.23 47.3099 15.26 47.9999 15.24C49.4899 15.19 50.93 15.34 52.29 16C54.68 17.17 56.21 19.04 56.88 21.63C56.94 21.84 56.99 22.06 57.05 22.27C57.05 27.59 57.05 32.91 57.05 38.23C56.74 39.59 56.27 40.88 55.39 41.99C53.67 44.15 51.45 45.28 48.67 45.26C47.09 45.25 47.3 45.05 47.29 46.63C47.28 48.62 47.29 50.61 47.29 52.6C47.29 55.04 45.96 56.86 43.64 57.6C43.52 57.64 43.4 57.69 43.28 57.73C33.66 57.73 24.03 57.73 14.41 57.73C13.01 57.32 11.8399 56.58 11.0899 55.27ZM9.3 18.64C7.29 18.64 5.69998 19.41 4.65998 21.18C4.16998 22.02 4.00996 22.94 4.00996 23.89C3.99996 28.12 3.98996 32.35 4.00996 36.58C4.01996 39.69 6.12991 41.79 9.20991 41.82C10.5699 41.83 10.41 41.95 10.42 40.61C10.42 39.39 10.41 38.17 10.43 36.95C10.44 36.52 10.2799 36.34 9.84992 36.36C9.59992 36.38 9.3299 36.37 9.0799 36.32C8.2399 36.14 7.69999 35.35 7.78999 34.45C7.86999 33.64 8.53994 33 9.36994 32.95C9.54994 32.94 9.73999 32.94 9.91999 32.94C22.56 32.94 35.1899 32.94 47.8299 32.94C48.1199 32.94 48.4299 32.93 48.7099 33C49.5299 33.2 50.0399 33.97 49.9599 34.84C49.8799 35.65 49.21 36.29 48.38 36.34C47.32 36.41 47.3199 36.41 47.3199 37.49C47.3199 38.73 47.33 39.97 47.31 41.2C47.3 41.62 47.43 41.81 47.88 41.8C48.73 41.79 49.57 41.78 50.38 41.5C52.4 40.82 53.7099 38.99 53.7199 36.71C53.7499 32.37 53.7599 28.03 53.7199 23.69C53.6899 20.66 51.5399 18.62 48.4799 18.61C41.9399 18.6 35.3999 18.61 28.8699 18.61C22.3399 18.64 15.82 18.64 9.3 18.64ZM14.5999 36.37C13.8099 36.37 13.81 36.37 13.81 37.18C13.81 42.2 13.81 47.22 13.81 52.24C13.81 53.75 14.41 54.35 15.92 54.35C24.55 54.35 33.18 54.35 41.8 54.35C43.31 54.35 43.91 53.75 43.91 52.24C43.91 47.22 43.91 42.2 43.91 37.18C43.91 36.38 43.9099 36.38 43.1199 36.38C38.3499 36.38 33.57 36.38 28.8 36.38C24.07 36.37 19.3299 36.37 14.5999 36.37ZM43.13 15.23C43.91 15.23 43.93 15.23 43.91 14.42C43.88 12.56 44.0499 10.68 43.8399 8.83001C43.5399 6.15001 41.6 4.37998 38.89 4.35998C32.21 4.31998 25.5199 4.31998 18.8399 4.35998C15.8999 4.37998 13.8599 6.50998 13.8199 9.48998C13.7999 11.19 13.83 12.89 13.81 14.59C13.8 15.12 13.9999 15.25 14.4899 15.25C19.2799 15.24 24.0799 15.24 28.8699 15.24C33.6199 15.23 38.38 15.23 43.13 15.23Z" fill="white"/>
<path d="M45.56 22.32C44.72 22.32 43.8699 22.31 43.0299 22.32C41.9899 22.33 41.2699 23.04 41.2799 24.04C41.2899 25.01 41.9999 25.72 43.0099 25.73C44.7499 25.74 46.4899 25.74 48.2299 25.73C49.2399 25.72 49.9499 25.01 49.9499 24.04C49.9599 23.05 49.2399 22.34 48.1899 22.33C47.3199 22.32 46.44 22.32 45.56 22.32Z" fill="white"/>
<path d="M28.92 43.46C30.31 43.46 31.7099 43.46 33.0999 43.46C34.2399 43.46 34.9699 42.78 34.9599 41.74C34.9499 40.73 34.2199 40.05 33.1199 40.05C30.2799 40.05 27.4399 40.05 24.5899 40.05C23.4899 40.05 22.7599 40.73 22.7499 41.74C22.7399 42.78 23.4799 43.45 24.6099 43.46C26.0599 43.47 27.49 43.46 28.92 43.46Z" fill="white"/>
<path d="M28.8499 50.56C30.2799 50.56 31.7099 50.56 33.1399 50.56C34.2299 50.55 34.9599 49.86 34.9599 48.85C34.9599 47.84 34.2299 47.15 33.1299 47.15C30.2899 47.15 27.4499 47.15 24.5999 47.15C23.4899 47.15 22.7599 47.82 22.7499 48.83C22.7399 49.87 23.4699 50.55 24.6099 50.56C26.0299 50.56 27.4399 50.56 28.8499 50.56Z" fill="white"/>
</svg>
