<svg width="237" height="198" viewBox="0 0 237 198" fill="none" xmlns="http://www.w3.org/2000/svg">
<path d="M208.36 153.86C189.83 179.78 162.77 198.75 128.25 197.78C107.43 197.2 87.88 188.45 70.33 177.88C53.13 167.52 37.09 155.12 24.52 139.83C11.96 124.54 2.98006 106.22 0.790055 86.7799C-1.90994 62.7699 6.19005 26.5599 30.66 14.1299C48.84 4.88993 66.63 11.2499 82.13 21.6399C94.42 29.8899 105.96 39.9099 120.42 43.9099C144.32 50.5099 168.1 40.5099 192.23 41.7099C204.98 42.3399 220.4 46.0099 229.28 55.3999C237.19 63.7499 237.35 76.0899 235.67 86.6599C232.08 109.19 222.81 133.64 208.36 153.86Z" fill="#FDF04C"/>
<path d="M3.26993 92.5899C8.22993 62.2799 23.9499 34.6999 55.2899 21.6799C74.1899 13.8299 95.6199 13.6899 116.07 15.9699C136.11 18.1999 156.04 22.6899 174.15 31.1299C192.26 39.5699 208.51 52.1199 219.19 68.3899C232.38 88.4799 241.37 123.67 225.04 144.46C212.91 159.91 194.13 161.45 175.59 158.5C160.89 156.16 146.05 151.95 131.32 154.24C106.97 158.01 90.1599 176.38 68.0199 185.02C56.3299 189.58 40.8699 192.54 28.7099 187.83C17.8899 183.64 12.1999 172.83 8.96988 162.83C2.06988 141.51 -0.60007 116.22 3.26993 92.5899Z" fill="#DB2662"/>
<path d="M180.55 161.27C164.16 171.04 147.33 169.83 127.69 169.26C117.25 168.95 108.46 172.05 99.5501 176.91C85.3701 184.64 69.03 197.91 52.2 188.2C29.82 175.28 43.0601 142.22 36.9001 120.36C30.7401 98.4999 5.19012 87.8399 18.1701 67.3999C31.1501 46.9599 65.8701 51.9099 89.0401 46.9799C129.66 39.4399 136.25 -24.56 178.95 11.07C192.69 22.53 192.39 44.6999 191.69 61.9299C190.89 81.6899 206.34 92.74 208.25 112.32C209.98 130.12 200.09 147.07 185.68 157.84C183.97 159.11 182.26 160.25 180.55 161.27Z" fill="white"/>
<path d="M120.49 133.74C114 133.94 109.86 130.71 108.82 124.64C107.44 116.8 106.67 109.58 106.52 103.19C106.36 96.4299 106.7 90.3199 107.54 85.0299C107.57 84.8299 107.62 84.6299 107.69 84.4399L109.51 79.4999C109.59 79.2799 109.69 79.0799 109.82 78.8799C112.81 74.2699 117.22 71.8499 122.94 71.6699C124.24 71.6299 125.43 71.7199 126.5 71.9299C126.71 71.9699 126.91 72.0399 127.11 72.1199C129.34 73.0699 130.92 74.9099 131.67 77.4299C131.7 77.5399 131.73 77.6499 131.75 77.7699L132.54 82.1899C132.57 82.3399 132.58 82.4899 132.59 82.6399C132.65 84.6099 132.77 87.0299 132.96 89.8099C133.15 92.7899 133.26 94.5799 133.28 95.4499C133.63 105.19 133.23 114.07 132.08 121.84C130.95 129.56 126.78 132.38 123.48 133.38C123.31 133.43 123.13 133.47 122.96 133.49C121.4 133.7 120.8 133.73 120.49 133.74Z" fill="#008F85"/>
<path d="M130.99 81.4698C131.05 83.4598 131.17 85.8898 131.36 88.7498C131.55 91.6098 131.65 93.4498 131.68 94.2798C132.02 103.89 131.64 112.5 130.51 120.12C129.79 125.05 127.65 128.06 124.08 129.14C123.01 129.27 122.29 129.34 121.9 129.35C117 129.5 114.16 127.33 113.39 122.83C112.03 115.1 111.28 108.1 111.14 101.84C110.98 95.2398 111.31 89.3698 112.13 84.2398L113.95 79.2998C116.36 75.5798 119.9 73.6498 124.56 73.5098C125.63 73.4798 126.58 73.5498 127.41 73.7098C128.79 74.2998 129.72 75.4098 130.21 77.0498L130.99 81.4698Z" fill="#33CCC1"/>
<path d="M123.31 124.63C119.45 124.75 118.38 123.14 117.96 120.7C116.63 113.15 115.89 106.24 115.75 100.16C115.6 93.8999 115.91 88.2699 116.65 83.4199L118.23 79.1099C120.08 76.4199 122.6 75.1099 126.14 75.0099C126.8 74.9899 127.4 75.0199 127.91 75.0899C128.18 75.2599 128.45 75.5599 128.66 76.1899L129.38 80.1899C129.45 82.1899 129.57 84.5899 129.75 87.3399C129.93 90.1699 130.04 91.9999 130.06 92.7599C130.4 102.15 130.01 110.66 128.92 118.05C128.24 122.68 126.36 123.97 124.9 124.47C123.81 124.61 123.41 124.63 123.31 124.63Z" fill="#CCF2F0"/>
<path d="M125.67 120.51C124.2 120.55 123.84 120.26 123.84 120.26C123.84 120.26 123.65 120.09 123.49 119.16C122.19 111.75 121.46 105 121.33 99.0699C121.19 93.1299 121.47 87.7799 122.15 83.1799L123.48 79.5699C124.66 78.0099 126.14 77.2599 128.34 77.1199L128.77 79.4999C128.84 81.4799 128.96 83.8399 129.14 86.5299C129.37 90.0199 129.43 91.3499 129.45 91.8499C129.78 101.07 129.41 109.38 128.34 116.59C127.92 119.43 127.1 120.18 126.63 120.42C125.94 120.5 125.7 120.51 125.67 120.51Z" fill="url(#paint0_linear_7_345)"/>
<path opacity="0.8" d="M128.588 80.404C128.855 78.3613 127.415 76.489 125.372 76.222C123.33 75.955 121.457 77.3945 121.19 79.4372C120.923 81.4799 122.363 83.3523 124.405 83.6193C126.448 83.8863 128.321 82.4468 128.588 80.404Z" fill="white"/>
<path d="M73.9201 136.49C71.0601 136.58 68.29 136.08 65.69 135.02C62.91 133.89 60.7801 132.26 59.3701 130.18C55.7901 124.93 52.9301 118.52 50.8801 111.15C49.1201 104.77 48.14 98.6199 47.97 92.8599C47.84 88.5099 48.07 85.3499 48.7 83.1999C49.6 80.1899 51.45 77.8799 54.21 76.2899C56.25 75.1099 58.32 74.4699 60.34 74.4099C60.55 74.3999 60.76 74.3999 60.97 74.4099C66.54 74.5699 69.3101 77.5099 70.6601 79.9599C70.6701 79.9799 70.6801 79.9899 70.6801 80.0099C71.0001 80.6299 71.3201 81.3499 71.6101 82.1899C72.7201 77.5799 74.5701 74.7099 77.2801 73.3299C79.4101 72.2399 81.7301 71.6499 84.1701 71.5799C88.2501 71.4499 91.8 72.6599 94.72 75.1699C97.36 77.0299 98.7801 80.3699 98.9301 85.0999C99.2001 93.7699 95.6001 107.26 87.9201 126.34C85.7301 131.77 81.6201 135.19 76.0201 136.26C75.1901 136.39 74.5201 136.47 73.9201 136.49Z" fill="#DB2662"/>
<path d="M94.3201 76.3299C96.2001 77.5799 97.2101 80.0999 97.3201 83.8899C97.5701 92.0499 93.9801 105.37 86.5301 123.87C84.7201 128.35 81.5301 131.02 76.9401 131.89C76.3101 132.01 75.7801 132.07 75.3401 132.09C72.9101 132.17 70.5901 131.75 68.3801 130.85C66.1701 129.95 64.5201 128.71 63.4501 127.14C60.0401 122.14 57.3501 116.1 55.3801 109.02C53.6801 102.85 52.7501 96.9999 52.5801 91.4699C52.4601 87.4899 52.6601 84.5899 53.1901 82.7799C53.8501 80.5699 55.2101 78.8799 57.2601 77.6999C59.0301 76.6699 60.7401 76.1799 62.3901 76.2299C65.7001 76.3199 68.0501 77.6299 69.4401 80.1699C70.6301 82.4199 71.6901 86.9299 72.6301 93.6999L73.8601 102.77C74.1401 99.2599 74.6101 94.0599 75.2701 87.1699C75.9301 80.2699 77.5801 76.1499 80.2101 74.8099C81.9301 73.9299 83.7901 73.4599 85.7801 73.3999C89.1201 73.2799 91.9701 74.2699 94.3201 76.3299Z" fill="#E97DA1"/>
<path d="M76.7502 127.38C74.7402 127.44 72.8803 127.11 71.0603 126.37C69.4303 125.71 68.2403 124.84 67.5303 123.79C64.3303 119.1 61.7603 113.31 59.8903 106.59C58.2703 100.7 57.3602 95.0398 57.2002 89.7698C57.0602 85.2398 57.3903 83.0698 57.6803 82.0398C58.1103 80.6198 58.9502 79.5698 60.3202 78.7898C61.4802 78.1198 62.5603 77.7598 63.5403 77.7298C63.6303 77.7298 63.7203 77.7298 63.8103 77.7298C66.6103 77.8098 67.6302 78.9998 68.2002 80.0298C68.9002 81.3598 69.9503 84.6099 71.0503 92.5099L72.2803 101.57C72.4903 103.14 73.8602 104.3 75.4502 104.26H75.4602C77.0402 104.21 78.3402 102.98 78.4602 101.4C78.7402 97.9398 79.2102 92.6998 79.8702 85.8398C80.6402 77.8198 82.5602 76.2398 83.1302 75.9498C84.4502 75.2798 85.8402 74.9299 87.3802 74.8799C89.9302 74.7999 92.0303 75.5098 93.7803 77.0498C93.8803 77.1398 94.0002 77.2298 94.1102 77.2998C95.0702 77.9398 95.6502 79.7398 95.7302 82.3698C95.9702 90.0598 92.4103 103.08 85.1603 121.1C83.7503 124.61 81.4302 126.55 77.8702 127.23C77.2902 127.35 76.9402 127.38 76.7502 127.38Z" fill="#F8D4E0"/>
<path d="M79.1102 123.27C77.5502 123.32 76.1001 123.06 74.6901 122.49C73.6701 122.07 72.9102 121.56 72.5502 121.04C69.5402 116.63 67.1101 111.15 65.3301 104.76C63.7801 99.1099 62.9102 93.6998 62.7502 88.6798C62.6102 84.1798 62.9602 82.4499 63.1102 81.9099C63.2702 81.3699 63.5302 80.9298 64.3102 80.4798C65.2402 79.9398 65.8201 79.8398 66.0801 79.8398C66.1101 79.8398 66.1402 79.8398 66.1602 79.8398C67.5002 79.8798 67.7302 80.1998 67.9002 80.4998C68.2902 81.2698 69.2902 83.8898 70.4102 91.9398L71.6402 100.99C72.0702 104.15 74.7901 106.46 77.9701 106.37C81.1601 106.27 83.7502 103.81 84.0002 100.65C84.2702 97.2098 84.7502 91.9898 85.4002 85.1398C85.9202 79.7598 86.9401 77.9898 87.2101 77.6098C88.0501 77.2198 88.9102 77.0199 89.9102 76.9899C91.6902 76.9399 93.0002 77.3698 94.1602 78.3898C94.3002 78.5198 94.4502 78.6398 94.6102 78.7498C94.7502 79.0398 95.0002 79.8898 95.0502 81.4698C95.2002 86.4598 93.5301 96.9998 84.7101 118.94C83.6901 121.47 82.2502 122.7 79.7302 123.18C79.3102 123.26 79.1102 123.27 79.1102 123.27Z" fill="url(#paint1_linear_7_345)"/>
<path opacity="0.8" d="M94.5445 83.2198C95.9554 81.7189 95.8824 79.3584 94.3814 77.9475C92.8805 76.5366 90.52 76.6095 89.1091 78.1105C87.6982 79.6114 87.7712 81.9719 89.2721 83.3828C90.7731 84.7937 93.1335 84.7207 94.5445 83.2198Z" fill="white"/>
<path d="M155.7 133.82C152.1 133.93 149.09 132.98 146.77 130.99C144.48 129.02 143.14 126.3 142.8 122.89C141.52 118.02 140.81 112.83 140.7 107.46L140.22 91.9099C140.21 91.5599 140.21 90.5999 140.34 86.3199C140.46 83.1199 140.93 80.3599 141.76 78.0999C143.06 74.5699 145.17 72.3599 148.04 71.5299C152.61 70.2099 156.84 69.4799 160.63 69.3699C170.04 69.0799 177.19 72.0999 181.88 78.3399C182.18 78.6199 182.44 78.9599 182.61 79.3499C182.65 79.4299 182.68 79.5199 182.71 79.5999C185.45 83.7899 186.91 88.1999 187.05 92.7199C187.21 97.8999 185.66 102.85 182.43 107.42C179.84 111.11 174.8 113.78 167.06 115.55C167.11 115.94 167.18 116.39 167.27 116.9C167.95 120.12 168.01 120.69 168.02 121.08C168.09 123.28 167.57 125.66 166.48 128.15C165.72 129.88 164.23 131.29 162.04 132.34C160.16 133.25 158.02 133.75 155.7 133.82Z" fill="#BEB439"/>
<path d="M181.3 79.3299L181.23 79.4099C183.93 83.3099 185.34 87.3499 185.47 91.5199C185.61 96.0299 184.26 100.3 181.42 104.33C179.05 107.71 173.68 110.18 165.32 111.75C165.25 112.68 165.39 114.15 165.75 116.18C166.21 118.35 166.44 119.58 166.45 119.88C166.5 121.63 166.08 123.54 165.17 125.6C164.72 126.63 163.73 127.52 162.23 128.24C160.72 128.97 159.02 129.36 157.13 129.42C154.31 129.51 152.05 128.81 150.32 127.33C148.6 125.85 147.62 123.76 147.39 121.04C146.13 116.32 145.44 111.33 145.32 106.09L144.84 90.5099C144.83 90.0699 144.87 88.2699 144.96 85.1099C145.06 82.2399 145.48 79.8199 146.19 77.8599C147.13 75.2999 148.54 73.7499 150.42 73.2099C154.75 71.9599 158.69 71.2799 162.24 71.1699C170.83 70.8999 177.16 73.6199 181.22 79.3299H181.3ZM167.65 92.9399C168.2 91.7599 168.45 90.6299 168.42 89.5599C168.34 86.8399 166.52 85.3899 162.96 85.2099C162.78 87.2599 162.71 88.8099 162.74 89.8799C162.79 91.3899 162.84 92.4999 162.92 93.2299C163.05 94.3399 163.22 95.9699 163.43 98.0999C163.85 97.6999 164.4 97.1199 165.05 96.3699C166.27 95.0699 167.11 93.8999 167.57 92.8699L167.65 92.9399Z" fill="#FDF370"/>
<path d="M158.53 124.71C156.5 124.77 154.97 124.34 153.84 123.37C152.75 122.44 152.15 121.07 151.99 119.18C151.97 119 151.94 118.82 151.9 118.64C150.71 114.18 150.05 109.4 149.94 104.43L149.46 88.82C149.46 88.68 149.45 87.9099 149.58 83.6099C149.67 81.0999 150.02 78.9799 150.63 77.3299C151.2 75.7699 151.94 74.8499 152.8 74.5999C156.86 73.4299 160.58 72.7799 163.85 72.6799C171.23 72.4499 176.51 74.59 179.96 79.2099C180.02 79.3399 180.1 79.4599 180.18 79.5799C182.55 83.0099 183.76 86.4299 183.87 90.0199C183.99 93.8799 182.85 97.4499 180.39 100.94C179.09 102.78 175.59 105.34 166.26 107.1C164.88 107.36 163.84 108.52 163.73 109.92C163.64 111.13 163.79 112.78 164.2 115.12C164.21 115.15 164.21 115.19 164.22 115.22C164.71 117.55 164.83 118.26 164.85 118.46C164.87 119.71 164.53 121.16 163.83 122.75C163.79 122.83 163.55 123.28 162.38 123.84C161.27 124.37 159.97 124.66 158.53 124.71ZM164.37 80.4999C162.81 80.5499 161.51 81.7599 161.37 83.3299C161.18 85.5099 161.1 87.1599 161.14 88.3699C161.19 89.9699 161.25 91.1299 161.33 91.9299C161.33 91.9499 161.33 91.9699 161.34 91.9899C161.47 93.0999 161.64 94.7199 161.85 96.7999C161.97 97.9799 162.75 98.9899 163.86 99.4099C164.24 99.5499 164.65 99.6199 165.04 99.5999C165.79 99.5799 166.52 99.2799 167.08 98.7499C167.57 98.2899 168.15 97.6699 168.87 96.8499C170.02 95.6199 170.89 94.4699 171.5 93.3699C171.69 93.1499 171.86 92.8999 171.98 92.6299C172.73 91.0099 173.08 89.3999 173.04 87.8499C172.98 85.7599 172.03 80.8699 164.64 80.4899C164.54 80.4999 164.46 80.4999 164.37 80.4999Z" fill="#FEF694"/>
<path d="M160.89 120.59C159.08 120.65 158.51 120.16 158.32 120C158.16 119.86 157.67 119.44 157.54 117.91C157.51 117.54 157.45 117.18 157.35 116.83C156.22 112.61 155.6 108.08 155.49 103.35L155.01 87.7099C155.01 87.6599 155 86.9699 155.13 82.6999C155.21 80.5599 155.51 78.7099 155.99 77.3899C156.17 76.8999 156.32 76.6299 156.42 76.4899C160.11 75.4499 163.47 74.8699 166.39 74.7799C172.68 74.5899 176.94 76.2099 179.79 79.8899C179.88 80.0399 179.97 80.1899 180.07 80.3299C182.09 83.2499 183.12 86.1199 183.21 89.0999C183.31 92.2599 182.35 95.2099 180.29 98.1299C179.79 98.8399 177.45 101.27 168.13 103.03C165.37 103.55 163.29 105.87 163.08 108.68C162.97 110.17 163.12 112.01 163.58 114.65C163.59 114.71 163.61 114.79 163.62 114.86C163.99 116.61 164.13 117.38 164.19 117.7C164.17 118.19 164.05 118.93 163.66 119.96C163.61 119.99 163.55 120.02 163.49 120.05C162.77 120.37 161.9 120.56 160.89 120.59ZM166.73 76.3899C163.59 76.4899 161.01 78.9199 160.73 82.0599C160.53 84.3699 160.45 86.1399 160.49 87.4699C160.54 89.1399 160.61 90.3699 160.69 91.2299L160.7 91.3399C160.83 92.4399 161 94.0399 161.2 96.0999C161.43 98.4399 163.01 100.49 165.21 101.31C165.97 101.59 166.77 101.72 167.58 101.7C169.1 101.65 170.55 101.05 171.66 99.9999C172.21 99.4799 172.85 98.7999 173.62 97.9299C174.86 96.6099 175.81 95.3599 176.52 94.1199C176.81 93.7499 177.05 93.35 177.25 92.92C178.2 90.86 178.65 88.7799 178.59 86.7399C178.44 81.9999 175.38 76.7899 167.24 76.3699C167.08 76.3799 166.9 76.3799 166.73 76.3899Z" fill="url(#paint2_linear_7_345)"/>
<path opacity="0.8" d="M176.422 79.2035C176.732 77.167 175.332 75.2651 173.295 74.9557C171.259 74.6463 169.357 76.0465 169.047 78.083C168.738 80.1196 170.138 82.0213 172.175 82.3308C174.211 82.6402 176.113 81.2401 176.422 79.2035Z" fill="white"/>
<defs>
<linearGradient id="paint0_linear_7_345" x1="126.112" y1="120.497" x2="124.775" y2="77.2294" gradientUnits="userSpaceOnUse">
<stop stop-color="#F4C47A"/>
<stop offset="0.8894" stop-color="#DCDCDC"/>
</linearGradient>
<linearGradient id="paint1_linear_7_345" x1="80.059" y1="123.232" x2="78.6402" y2="77.3378" gradientUnits="userSpaceOnUse">
<stop stop-color="#F4C47A"/>
<stop offset="0.8894" stop-color="#DCDCDC"/>
</linearGradient>
<linearGradient id="paint2_linear_7_345" x1="170.06" y1="120.304" x2="168.65" y2="74.7009" gradientUnits="userSpaceOnUse">
<stop stop-color="#F4C47A"/>
<stop offset="0.8894" stop-color="#DCDCDC"/>
</linearGradient>
</defs>
</svg>
